<?xml version="1.0" encoding="UTF-8" standalone="no"?>
<!DOCTYPE svg PUBLIC "-//W3C//DTD SVG 1.1//EN" "http://www.w3.org/Graphics/SVG/1.1/DTD/svg11.dtd">
<svg width="100%" height="100%" viewBox="0 0 1920 1080" version="1.1" xmlns="http://www.w3.org/2000/svg" xmlns:xlink="http://www.w3.org/1999/xlink" xml:space="preserve" xmlns:serif="http://www.serif.com/" style="fill-rule:evenodd;clip-rule:evenodd;stroke-linejoin:round;stroke-miterlimit:2;">
    <rect x="-4.07" y="-3.847" width="1928.16" height="1086.68" style="fill:url(#_Linear1);"/>
    <g transform="matrix(0.949676,0.731755,-1.50244,1.94988,258.918,-470.287)">
        <rect x="-1.017" y="-0.963" width="622.703" height="569.793" style="fill:rgb(252,213,94);"/>
    </g>
    <g transform="matrix(3.09231,0,0,3.09231,-1810.21,-664.991)">
        <g transform="matrix(96,0,0,96,688.839,423.33)">
            <path d="M0.495,-0.302L0.225,-0.302L0.225,-0.132L0.543,-0.132L0.543,0L0.054,0L0.054,-0.711L0.544,-0.711L0.544,-0.579L0.225,-0.579L0.225,-0.429L0.495,-0.429L0.495,-0.302Z" style="fill:rgb(252,213,94);fill-rule:nonzero;"/>
        </g>
        <g transform="matrix(96,0,0,96,752.158,423.33)">
            <path d="M0.611,-0.711L0.611,-0.246C0.611,-0.193 0.6,-0.147 0.578,-0.109C0.555,-0.07 0.523,-0.041 0.481,-0.021C0.439,0 0.389,0.01 0.332,0.01C0.245,0.01 0.177,-0.013 0.127,-0.058C0.078,-0.103 0.052,-0.164 0.051,-0.242L0.051,-0.711L0.224,-0.711L0.224,-0.239C0.226,-0.161 0.262,-0.122 0.332,-0.122C0.368,-0.122 0.394,-0.132 0.413,-0.151C0.431,-0.171 0.44,-0.203 0.44,-0.247L0.44,-0.711L0.611,-0.711Z" style="fill:rgb(252,213,94);fill-rule:nonzero;"/>
        </g>
        <g transform="matrix(96,0,0,96,825.555,423.33)">
            <path d="M0.318,-0.251L0.225,-0.251L0.225,0L0.054,0L0.054,-0.711L0.333,-0.711C0.418,-0.711 0.484,-0.692 0.531,-0.655C0.579,-0.617 0.603,-0.565 0.603,-0.496C0.603,-0.447 0.593,-0.406 0.573,-0.373C0.552,-0.341 0.521,-0.315 0.479,-0.294L0.627,-0.007L0.627,0L0.443,0L0.318,-0.251ZM0.225,-0.383L0.333,-0.383C0.366,-0.383 0.391,-0.392 0.407,-0.409C0.423,-0.426 0.432,-0.45 0.432,-0.481C0.432,-0.511 0.423,-0.535 0.407,-0.553C0.39,-0.57 0.366,-0.579 0.333,-0.579L0.225,-0.579L0.225,-0.383Z" style="fill:rgb(252,213,94);fill-rule:nonzero;"/>
        </g>
        <g transform="matrix(96,0,0,96,897.78,423.33)">
            <path d="M0.495,-0.302L0.225,-0.302L0.225,-0.132L0.543,-0.132L0.543,0L0.054,0L0.054,-0.711L0.544,-0.711L0.544,-0.579L0.225,-0.579L0.225,-0.429L0.495,-0.429L0.495,-0.302Z" style="fill:rgb(252,213,94);fill-rule:nonzero;"/>
        </g>
        <g transform="matrix(96,0,0,96,961.099,423.33)">
            <path d="M0.295,-0.265L0.225,-0.188L0.225,0L0.054,0L0.054,-0.711L0.225,-0.711L0.225,-0.397L0.285,-0.488L0.438,-0.711L0.65,-0.711L0.41,-0.396L0.65,0L0.447,0L0.295,-0.265Z" style="fill:rgb(252,213,94);fill-rule:nonzero;"/>
        </g>
        <g transform="matrix(96,0,0,96,1032.11,423.33)">
            <path d="M0.458,-0.133L0.223,-0.133L0.182,0L-0.001,0L0.259,-0.711L0.42,-0.711L0.683,0L0.499,0L0.458,-0.133ZM0.264,-0.265L0.417,-0.265L0.34,-0.512L0.264,-0.265Z" style="fill:rgb(252,213,94);fill-rule:nonzero;"/>
        </g>
    </g>
    <g transform="matrix(0.390279,0,0,0.390279,5.58815,307.485)">
        <g transform="matrix(296.862,0,0,296.862,114.9,192.589)">
            <rect x="0.065" y="-0.711" width="0.171" height="0.711" style="fill:rgb(49,197,137);fill-rule:nonzero;"/>
        </g>
        <g transform="matrix(296.862,0,0,296.862,204.48,192.589)">
            <path d="M0.323,-0.148C0.323,-0.162 0.315,-0.174 0.301,-0.182C0.286,-0.191 0.258,-0.199 0.217,-0.208C0.176,-0.218 0.142,-0.23 0.116,-0.244C0.089,-0.259 0.069,-0.277 0.055,-0.298C0.041,-0.319 0.034,-0.344 0.034,-0.371C0.034,-0.42 0.054,-0.46 0.094,-0.491C0.134,-0.522 0.186,-0.538 0.251,-0.538C0.321,-0.538 0.377,-0.522 0.419,-0.491C0.461,-0.459 0.482,-0.418 0.482,-0.366L0.317,-0.366C0.317,-0.409 0.295,-0.43 0.25,-0.43C0.233,-0.43 0.219,-0.425 0.207,-0.415C0.195,-0.406 0.189,-0.394 0.189,-0.379C0.189,-0.365 0.197,-0.353 0.211,-0.344C0.225,-0.335 0.248,-0.327 0.28,-0.321C0.311,-0.315 0.339,-0.308 0.362,-0.3C0.442,-0.273 0.481,-0.224 0.481,-0.153C0.481,-0.105 0.46,-0.066 0.417,-0.036C0.374,-0.005 0.319,0.01 0.251,0.01C0.206,0.01 0.165,0.002 0.13,-0.015C0.094,-0.031 0.067,-0.053 0.047,-0.081C0.027,-0.109 0.017,-0.139 0.017,-0.169L0.171,-0.169C0.172,-0.145 0.18,-0.127 0.195,-0.116C0.211,-0.105 0.231,-0.099 0.255,-0.099C0.278,-0.099 0.295,-0.104 0.306,-0.113C0.317,-0.122 0.323,-0.134 0.323,-0.148Z" style="fill:rgb(49,197,137);fill-rule:nonzero;"/>
        </g>
        <g transform="matrix(296.862,0,0,296.862,356.535,192.589)">
            <path d="M0.323,-0.148C0.323,-0.162 0.315,-0.174 0.301,-0.182C0.286,-0.191 0.258,-0.199 0.217,-0.208C0.176,-0.218 0.142,-0.23 0.116,-0.244C0.089,-0.259 0.069,-0.277 0.055,-0.298C0.041,-0.319 0.034,-0.344 0.034,-0.371C0.034,-0.42 0.054,-0.46 0.094,-0.491C0.134,-0.522 0.186,-0.538 0.251,-0.538C0.321,-0.538 0.377,-0.522 0.419,-0.491C0.461,-0.459 0.482,-0.418 0.482,-0.366L0.317,-0.366C0.317,-0.409 0.295,-0.43 0.25,-0.43C0.233,-0.43 0.219,-0.425 0.207,-0.415C0.195,-0.406 0.189,-0.394 0.189,-0.379C0.189,-0.365 0.197,-0.353 0.211,-0.344C0.225,-0.335 0.248,-0.327 0.28,-0.321C0.311,-0.315 0.339,-0.308 0.362,-0.3C0.442,-0.273 0.481,-0.224 0.481,-0.153C0.481,-0.105 0.46,-0.066 0.417,-0.036C0.374,-0.005 0.319,0.01 0.251,0.01C0.206,0.01 0.165,0.002 0.13,-0.015C0.094,-0.031 0.067,-0.053 0.047,-0.081C0.027,-0.109 0.017,-0.139 0.017,-0.169L0.171,-0.169C0.172,-0.145 0.18,-0.127 0.195,-0.116C0.211,-0.105 0.231,-0.099 0.255,-0.099C0.278,-0.099 0.295,-0.104 0.306,-0.113C0.317,-0.122 0.323,-0.134 0.323,-0.148Z" style="fill:rgb(49,197,137);fill-rule:nonzero;"/>
        </g>
        <g transform="matrix(296.862,0,0,296.862,508.59,192.589)">
            <path d="M0.361,-0.057C0.326,-0.013 0.279,0.01 0.22,0.01C0.162,0.01 0.118,-0.007 0.088,-0.041C0.058,-0.074 0.043,-0.123 0.043,-0.186L0.043,-0.528L0.208,-0.528L0.208,-0.185C0.208,-0.14 0.23,-0.117 0.274,-0.117C0.312,-0.117 0.339,-0.131 0.354,-0.158L0.354,-0.528L0.52,-0.528L0.52,0L0.366,0L0.361,-0.057Z" style="fill:rgb(49,197,137);fill-rule:nonzero;"/>
        </g>
        <g transform="matrix(296.862,0,0,296.862,676.009,192.589)">
            <path d="M0.302,0.01C0.221,0.01 0.155,-0.014 0.105,-0.063C0.055,-0.111 0.03,-0.174 0.03,-0.251L0.03,-0.265C0.03,-0.319 0.04,-0.367 0.06,-0.408C0.08,-0.45 0.109,-0.482 0.147,-0.504C0.186,-0.527 0.231,-0.538 0.284,-0.538C0.358,-0.538 0.417,-0.515 0.46,-0.469C0.503,-0.423 0.524,-0.359 0.524,-0.276L0.524,-0.212L0.197,-0.212C0.203,-0.183 0.216,-0.16 0.236,-0.143C0.256,-0.126 0.281,-0.117 0.313,-0.117C0.365,-0.117 0.406,-0.135 0.435,-0.172L0.51,-0.083C0.49,-0.055 0.461,-0.032 0.423,-0.015C0.385,0.001 0.345,0.01 0.302,0.01ZM0.283,-0.411C0.235,-0.411 0.206,-0.379 0.197,-0.315L0.363,-0.315L0.363,-0.328C0.364,-0.354 0.357,-0.375 0.343,-0.389C0.329,-0.404 0.309,-0.411 0.283,-0.411Z" style="fill:rgb(49,197,137);fill-rule:nonzero;"/>
        </g>
        <g transform="matrix(296.862,0,0,296.862,911.556,192.589)">
            <path d="M0.656,-0.341C0.656,-0.271 0.643,-0.21 0.617,-0.157C0.591,-0.103 0.555,-0.062 0.508,-0.033C0.46,-0.005 0.406,0.01 0.346,0.01C0.285,0.01 0.231,-0.004 0.185,-0.032C0.138,-0.06 0.101,-0.1 0.075,-0.151C0.049,-0.203 0.035,-0.263 0.034,-0.33L0.034,-0.37C0.034,-0.439 0.046,-0.501 0.072,-0.554C0.098,-0.607 0.134,-0.648 0.182,-0.677C0.23,-0.706 0.284,-0.721 0.345,-0.721C0.405,-0.721 0.459,-0.706 0.506,-0.678C0.553,-0.649 0.59,-0.608 0.616,-0.555C0.642,-0.503 0.655,-0.442 0.656,-0.374L0.656,-0.341ZM0.481,-0.371C0.481,-0.441 0.47,-0.495 0.446,-0.531C0.422,-0.568 0.389,-0.586 0.345,-0.586C0.259,-0.586 0.213,-0.522 0.208,-0.393L0.208,-0.341C0.208,-0.271 0.22,-0.218 0.243,-0.18C0.266,-0.143 0.3,-0.124 0.346,-0.124C0.389,-0.124 0.422,-0.142 0.446,-0.179C0.469,-0.216 0.481,-0.269 0.481,-0.338L0.481,-0.371Z" style="fill:rgb(49,197,137);fill-rule:nonzero;"/>
        </g>
        <g transform="matrix(296.862,0,0,296.862,1116.52,192.589)">
            <path d="M0.197,-0.528L0.203,-0.466C0.239,-0.514 0.289,-0.538 0.354,-0.538C0.409,-0.538 0.45,-0.522 0.477,-0.489C0.504,-0.456 0.518,-0.406 0.519,-0.34L0.519,0L0.354,0L0.354,-0.333C0.354,-0.36 0.349,-0.38 0.338,-0.392C0.327,-0.405 0.308,-0.411 0.279,-0.411C0.247,-0.411 0.223,-0.398 0.208,-0.373L0.208,0L0.043,0L0.043,-0.528L0.197,-0.528Z" style="fill:rgb(49,197,137);fill-rule:nonzero;"/>
        </g>
        <g transform="matrix(296.862,0,0,296.862,1283.94,192.589)">
            <path d="M0.302,0.01C0.221,0.01 0.155,-0.014 0.105,-0.063C0.055,-0.111 0.03,-0.174 0.03,-0.251L0.03,-0.265C0.03,-0.319 0.04,-0.367 0.06,-0.408C0.08,-0.45 0.109,-0.482 0.147,-0.504C0.186,-0.527 0.231,-0.538 0.284,-0.538C0.358,-0.538 0.417,-0.515 0.46,-0.469C0.503,-0.423 0.524,-0.359 0.524,-0.276L0.524,-0.212L0.197,-0.212C0.203,-0.183 0.216,-0.16 0.236,-0.143C0.256,-0.126 0.281,-0.117 0.313,-0.117C0.365,-0.117 0.406,-0.135 0.435,-0.172L0.51,-0.083C0.49,-0.055 0.461,-0.032 0.423,-0.015C0.385,0.001 0.345,0.01 0.302,0.01ZM0.283,-0.411C0.235,-0.411 0.206,-0.379 0.197,-0.315L0.363,-0.315L0.363,-0.328C0.364,-0.354 0.357,-0.375 0.343,-0.389C0.329,-0.404 0.309,-0.411 0.283,-0.411Z" style="fill:rgb(49,197,137);fill-rule:nonzero;"/>
        </g>
    </g>
    <defs>
        <linearGradient id="_Linear1" x1="0" y1="0" x2="1" y2="0" gradientUnits="userSpaceOnUse" gradientTransform="matrix(1928.16,0,0,1086.68,-4.06995,539.491)"><stop offset="0" style="stop-color:rgb(114,190,160);stop-opacity:1"/><stop offset="0.54" style="stop-color:rgb(65,195,143);stop-opacity:1"/><stop offset="1" style="stop-color:rgb(46,197,136);stop-opacity:1"/></linearGradient>
    </defs>
</svg>
