<svg xmlns="http://www.w3.org/2000/svg" viewBox="0 0 1500 1500"><defs><style>.cls-1{fill:#7cceb6;}</style></defs><title>Artboard 5 copy</title><g id="Layer_4" data-name="Layer 4"><circle class="cls-1" cx="750" cy="750" r="350.88"/><path d="M827.82,1041.12c35.48-101.19,195.51-579.87,213.38-634.51,21.28-61.41,16.4-74.52,6.18-84.43-5.91-5.73-25.75-15.89-54.45-5.23C981.1,321.34,926,339.14,837,457.17s-225.42,361-225.42,361,118-266.94,118.81-327.71c0-1.25.06-2.51.16-3.76,1.28-16.18-16.49-31.58-29.27-31.2s-25,1.35-42.82,19.44c-37.82,38.33-77.69,118.85-129.08,237.67C469,845.61,406.69,940.79,377.83,957c-4,2.28-11.62,3.54-15.73,1.38-14.93-7.88-40.65-38.31,6-77.48,6.15-5.16,13.7-11.27,21-15.55,3-1.75,14.68-19.43,8.39-21.8-3.14-1.18-8.13-2-22,.74a48,48,0,0,0-5.7,1.5c-34.1,11.27-71.75,41.23-70.27,80.31a51.72,51.72,0,0,0,35.32,47.36,71.79,71.79,0,0,0,26.8,3.68c15.55-1.31,16.13-1.21,33.27-8.26,46.13-19,103.08-125.38,157.46-238,70.47-164.54,121.83-253.05,132.81-246.08s-77.32,225-146,392.36c-3.25,7.92,9,14.27,18.76,17.26a39.81,39.81,0,0,0,13.47,1.68l.45,0a40.52,40.52,0,0,0,31.43-17.21c30.94-44.14,100.1-167.46,112-190.94C738.53,646.1,862.62,431.49,979.88,343.5c16.24-12.19,25.69-.76,20.64,9.38C958.12,437.94,772.88,869.38,725,1126.34"/><path d="M729.19,1099c-1.1,4-45.73,144.27,35.9,191.17.18.11.39.16.58.25,16.6,8.32,44.05,10.46,59.22,3.9a33.71,33.71,0,0,0,5.92-3.38c8.34-6,8.42-19.87,5.61-17.83-6.67,4.83-23.41,7.53-27.72,7.1-17.81-1.78-30.8-13.39-31.43-46.91s22.66-109.09,33.46-139.61c14-39.66,39.24-117,44.11-139.27.5-2.31-1.53-4.29-3.67-3.29l-92.79,43.49a2.67,2.67,0,0,0-1.39,1.55l-22.94,83.32C734,1079.54,729.21,1098.94,729.19,1099Z"/></g></svg>